<?xml version="1.0" standalone="no"?><!DOCTYPE svg PUBLIC "-//W3C//DTD SVG 1.1//EN" "http://www.w3.org/Graphics/SVG/1.1/DTD/svg11.dtd"><svg t="1780242654891" class="icon" viewBox="0 0 1024 1024" version="1.1" xmlns="http://www.w3.org/2000/svg" p-id="1692" xmlns:xlink="http://www.w3.org/1999/xlink" width="200" height="200"><path d="M410.965333 669.76c-37.333333 0-67.84 28.309333-72.149333 64.597333a130.816 130.816 0 0 0 37.44 5.525334h107.434667c-1.642667-38.933333-33.514667-70.122667-72.725334-70.122667zM579.029333 444.288c0-40.362667-32.746667-73.194667-73.024-73.194667s-73.024 32.832-73.024 73.194667c0 0.64-0.277333 1.173333-0.362666 1.770667h146.773333c-0.085333-0.618667-0.362667-1.152-0.362667-1.770667z" fill="#64C8BE" p-id="1693"></path><path d="M506.005333 305.557333m-33.557333 0a33.557333 33.557333 0 1 0 67.114667 0 33.557333 33.557333 0 1 0-67.114667 0Z" fill="#64C8BE" p-id="1694"></path><path d="M410.965333 604.202667m-33.472 0a33.472 33.472 0 1 0 66.944 0 33.472 33.472 0 1 0-66.944 0Z" fill="#64C8BE" p-id="1695"></path><path d="M601.024 604.202667m-33.472 0a33.472 33.472 0 1 0 66.944 0 33.472 33.472 0 1 0-66.944 0Z" fill="#64C8BE" p-id="1696"></path><path d="M597.333333 0h-170.666666C191.018667 0 0 191.04 0 426.666667v170.666666c0 235.626667 191.018667 426.666667 426.666667 426.666667h170.666666c235.648 0 426.666667-191.04 426.666667-426.666667v-170.666666C1024 191.04 832.981333 0 597.333333 0z m50.410667 771.882667H376.256c-89.834667 0-162.922667-73.088-162.922667-162.922667 0-89.813333 73.088-162.901333 162.922667-162.901333h25.088c-0.085333-0.618667-0.362667-1.152-0.362667-1.770667 0-40.938667 23.701333-76.096 57.877334-93.482667a65.194667 65.194667 0 0 1-18.304-45.248 65.578667 65.578667 0 0 1 65.450666-65.557333 65.557333 65.557333 0 0 1 65.450667 65.557333 65.28 65.28 0 0 1-18.304 45.248c34.197333 17.365333 57.877333 52.544 57.877333 93.482667 0 0.64-0.298667 1.173333-0.362666 1.770667h37.077333c89.834667 0 162.922667 73.066667 162.922667 162.901333s-73.088 162.922667-162.922667 162.922667z" fill="#64C8BE" p-id="1697"></path><path d="M601.024 669.76c-39.232 0-71.061333 31.210667-72.704 70.122667h119.445333a131.413333 131.413333 0 0 0 25.749334-2.56c-2.944-37.717333-34.154667-67.562667-72.490667-67.562667z" fill="#64C8BE" p-id="1698"></path><path d="M647.744 478.058667H376.256a131.072 131.072 0 0 0-130.922667 130.901333 130.816 130.816 0 0 0 63.082667 111.744 105.173333 105.173333 0 0 1 55.402667-71.253333 65.194667 65.194667 0 0 1-18.304-45.248 65.557333 65.557333 0 0 1 65.450666-65.536 65.578667 65.578667 0 0 1 65.472 65.536 65.28 65.28 0 0 1-18.304 45.248 105.301333 105.301333 0 0 1 47.893334 49.386666 105.173333 105.173333 0 0 1 47.872-49.386666 65.194667 65.194667 0 0 1-18.304-45.248c0-36.138667 29.354667-65.536 65.450666-65.536s65.472 29.397333 65.472 65.536a65.28 65.28 0 0 1-18.304 45.248 104.832 104.832 0 0 1 56.234667 77.333333 130.922667 130.922667 0 0 0 74.24-117.824 131.093333 131.093333 0 0 0-130.944-130.901333z" fill="#64C8BE" p-id="1699"></path></svg>